<?xml version="1.0" standalone="no"?>
<!DOCTYPE svg PUBLIC "-//W3C//DTD SVG 20010904//EN"
 "http://www.w3.org/TR/2001/REC-SVG-20010904/DTD/svg10.dtd">
<svg version="1.0" xmlns="http://www.w3.org/2000/svg"
 width="600.000000pt" height="558.000000pt" viewBox="0 0 600.000000 558.000000"
 preserveAspectRatio="xMidYMid meet">
<g transform="translate(0.000000,558.000000) scale(0.100000,-0.100000)"
fill="#000000" stroke="none">
<path d="M2711 5225 c-151 -91 -276 -165 -278 -165 -2 0 -16 -9 -31 -19 -15
-10 -194 -118 -399 -240 l-372 -221 -3 -433 c-2 -237 -2 -433 -2 -435 1 -1 18
8 37 20 l36 23 1 390 0 390 443 265 c604 361 808 484 832 499 18 12 39 1 205
-100 102 -62 233 -141 293 -175 164 -97 653 -392 735 -444 l72 -46 3 -387 c1
-241 6 -390 12 -396 6 -5 22 -13 38 -16 l27 -7 0 424 0 423 -92 56 c-51 30
-357 213 -679 407 -323 194 -591 352 -595 352 -5 -1 -133 -75 -283 -165z m331
114 c13 -7 29 -21 36 -31 7 -10 18 -15 24 -12 7 5 8 2 4 -5 -5 -8 -3 -11 5
-10 22 3 50 -12 42 -24 -4 -6 2 -8 15 -5 15 4 22 2 22 -9 0 -8 5 -11 13 -7 7
4 7 2 -2 -7 -10 -11 -15 -11 -18 -1 -3 6 -11 12 -19 12 -7 0 -19 9 -26 19 -6
10 -17 17 -23 14 -7 -2 -20 3 -29 12 -9 9 -16 14 -16 11 0 -3 -16 6 -36 19
l-36 25 -29 -21 c-28 -20 -61 -17 -41 3 34 34 72 40 114 17z m-122 -46 c0 -3
-7 -2 -16 1 -11 4 -15 2 -11 -8 4 -11 1 -13 -10 -9 -12 5 -14 3 -8 -7 6 -9 4
-12 -7 -8 -8 4 -20 -2 -26 -13 -7 -10 -15 -18 -20 -18 -20 3 -33 -2 -27 -11 4
-6 3 -9 -2 -8 -18 5 -53 -14 -47 -25 4 -7 4 -9 -1 -5 -4 4 -13 4 -19 -2 -7 -5
-18 -5 -26 0 -11 7 -8 10 13 15 15 4 24 11 21 16 -3 5 3 6 12 2 13 -5 15 -3 9
7 -6 10 -4 12 8 7 10 -3 17 -2 17 3 0 6 7 10 15 10 9 0 18 7 22 16 5 13 7 13
14 2 7 -10 9 -10 9 2 0 18 50 49 68 42 6 -2 12 -6 12 -9z m387 -114 c17 -13
20 -18 9 -22 -8 -3 -23 3 -34 14 -12 10 -28 19 -35 19 -17 0 -39 24 -31 33 7
7 51 -15 91 -44z m-612 -19 c-4 -6 -11 -8 -16 -4 -5 3 -8 2 -7 -3 2 -4 0 -8
-3 -8 -4 0 -16 -9 -28 -19 -12 -11 -21 -15 -21 -11 0 4 -9 0 -21 -11 -12 -10
-24 -19 -28 -19 -3 0 -5 -3 -3 -7 1 -5 -7 -8 -17 -8 -11 0 -26 -6 -33 -12 -7
-7 -22 -20 -32 -28 -18 -13 -19 -13 -12 0 4 8 0 6 -9 -5 -9 -11 -21 -19 -27
-17 -6 2 -17 -7 -25 -18 -12 -17 -18 -19 -29 -9 -12 10 -14 10 -12 0 2 -7 -8
-20 -22 -29 -13 -9 -21 -11 -16 -4 4 8 1 12 -9 12 -10 0 -13 -5 -9 -12 4 -6 3
-8 -4 -4 -6 3 -13 2 -17 -4 -3 -5 0 -10 7 -10 11 -1 -18 -23 -32 -25 -3 0 -14
-6 -26 -12 -16 -10 -21 -9 -21 2 0 7 7 11 15 7 10 -3 13 -1 8 6 -4 7 -1 12 9
12 10 0 13 5 9 12 -4 6 -3 8 3 5 6 -4 18 2 28 13 10 11 23 20 29 20 6 0 28 11
49 25 20 14 37 22 37 18 0 -4 4 -3 8 2 12 17 62 46 70 41 5 -3 14 3 22 14 7
10 20 16 29 12 9 -3 13 -1 9 3 -8 8 13 23 59 44 11 5 24 15 28 21 3 5 11 8 16
5 5 -4 9 -1 9 4 0 6 9 11 21 11 11 0 17 -5 14 -10z m698 -37 c9 -9 17 -12 17
-8 0 4 9 -2 19 -14 11 -13 25 -20 30 -16 6 3 11 1 11 -5 0 -6 5 -8 12 -4 7 4
8 3 4 -4 -4 -7 -1 -12 7 -12 8 0 18 -7 21 -16 3 -8 10 -12 16 -9 5 3 10 1 10
-4 0 -15 -18 -14 -35 2 -32 28 -45 37 -52 37 -22 0 -42 13 -37 22 5 8 1 9 -10
5 -9 -4 -14 -3 -11 2 3 5 1 12 -5 16 -5 3 -10 1 -10 -5 0 -6 -5 -8 -11 -4 -8
4 -7 9 2 15 11 7 10 9 -3 10 -32 3 -36 4 -45 13 -14 15 51 -5 70 -21z m217
-137 c0 -5 3 -7 6 -3 9 9 104 -41 111 -58 3 -8 9 -12 14 -9 5 3 28 -11 51 -31
25 -21 48 -33 57 -30 9 3 12 3 8 -1 -7 -8 8 -18 90 -60 29 -14 51 -30 48 -34
-3 -5 1 -11 7 -13 9 -4 10 -6 1 -6 -6 -1 -19 8 -27 20 -8 12 -19 18 -25 15 -5
-4 -12 -2 -16 4 -4 6 -10 8 -15 5 -5 -3 -14 4 -20 15 -6 11 -16 18 -21 14 -6
-3 -19 3 -30 15 -11 12 -36 28 -55 36 -20 8 -33 19 -30 24 4 5 1 13 -5 17 -7
4 -9 3 -5 -4 3 -6 2 -13 -3 -16 -5 -3 -12 1 -15 9 -3 8 -9 14 -13 13 -15 -5
-63 34 -56 46 4 6 -1 5 -10 -3 -15 -12 -17 -11 -17 5 0 16 -2 17 -10 4 -6 -10
-10 -11 -10 -2 0 6 -7 12 -16 12 -8 0 -12 5 -9 10 3 6 -1 10 -10 10 -10 0 -13
5 -9 12 5 7 0 9 -14 6 -15 -4 -19 -2 -15 8 4 11 10 11 34 -3 16 -10 29 -22 29
-27z m-1416 -115 c-10 -17 -20 -30 -23 -29 -14 1 -51 -15 -51 -22 0 -4 -13
-13 -30 -20 -16 -7 -30 -17 -30 -22 0 -5 -4 -6 -10 -3 -15 9 -12 25 5 25 8 0
15 4 15 9 0 5 10 13 22 17 13 4 29 14 36 23 8 9 11 10 7 4 -10 -21 9 -14 23 7
7 12 17 18 22 15 6 -3 10 1 10 9 0 9 5 16 11 16 5 0 2 -13 -7 -29z m-154 -100
c0 -5 -13 -14 -30 -21 -16 -7 -30 -17 -30 -22 0 -5 -4 -7 -9 -3 -6 3 -26 -9
-46 -26 -20 -17 -38 -29 -41 -26 -3 3 -15 -4 -26 -15 -11 -11 -26 -17 -34 -14
-8 3 -13 2 -10 -3 7 -10 -23 -26 -55 -30 -5 0 -7 -7 -3 -13 4 -7 4 -10 -1 -6
-4 4 -14 0 -22 -10 -10 -11 -12 -12 -8 -2 4 10 2 9 -8 -2 -8 -10 -19 -18 -25
-18 -6 0 -14 -5 -18 -12 -5 -7 -3 -8 6 -3 9 6 11 4 5 -5 -5 -8 -9 -125 -9
-261 -1 -176 -4 -251 -13 -260 -9 -9 -12 33 -12 180 0 115 4 191 9 191 6 0 10
5 10 11 0 5 -5 7 -10 4 -7 -5 -10 22 -9 79 1 75 4 88 21 97 15 8 19 8 14 0 -4
-6 -2 -11 3 -11 6 0 11 6 11 14 0 13 14 23 33 24 5 0 23 11 40 24 18 13 47 30
64 37 18 7 30 18 26 24 -3 5 -1 7 5 3 6 -3 13 -2 17 4 3 5 16 10 28 10 18 0
20 2 7 11 -13 9 -12 10 3 5 11 -3 17 0 17 9 0 9 6 12 17 8 12 -5 14 -3 8 7 -5
8 -4 11 3 7 15 -10 43 3 35 16 -3 6 -1 7 5 3 7 -4 12 -2 12 4 0 6 5 8 10 5 6
-3 10 -10 10 -14z m1995 -31 c-5 -9 -1 -11 20 -10 3 0 18 -11 33 -25 15 -14
33 -23 40 -20 6 2 12 0 12 -5 0 -13 56 -41 65 -32 5 4 5 2 1 -5 -5 -10 18 -24
44 -28 3 0 15 -9 28 -20 12 -11 28 -20 35 -20 7 0 11 -9 9 -19 -2 -10 0 -16 5
-13 4 3 6 -17 5 -44 -2 -27 -8 -49 -12 -49 -5 0 -8 17 -6 38 3 40 -16 74 -44
80 -8 1 -25 14 -36 27 -12 13 -25 21 -28 18 -3 -4 -23 7 -44 24 -20 17 -47 33
-60 37 -12 4 -22 12 -22 17 0 6 -5 7 -12 3 -7 -4 -8 -3 -4 4 6 11 -6 16 -26
13 -5 0 -8 4 -8 10 0 5 -4 7 -10 4 -6 -3 -7 1 -4 9 3 9 10 16 16 16 5 0 6 -4
3 -10z m292 -402 c-3 -8 -6 -5 -6 6 -1 11 2 17 5 13 3 -3 4 -12 1 -19z m0 -78
c-1 -22 -5 -40 -9 -40 -10 0 -10 8 -2 49 9 43 14 39 11 -9z m-6 -208 c-8 -12
-10 4 -11 64 0 44 3 84 8 88 11 12 14 -132 3 -152z m-2650 -144 c1 -51 3 -103
4 -115 1 -14 -2 -20 -11 -16 -17 6 -18 23 -1 23 8 0 9 3 1 8 -13 8 -14 192 -2
192 5 0 9 -42 9 -92z m2658 -33 c0 -57 -3 -106 -7 -109 -4 -2 -8 45 -10 105
-2 66 1 109 7 109 5 0 9 -44 10 -105z"/>
<path d="M2935 5320 c-3 -5 -1 -10 4 -10 6 0 11 5 11 10 0 6 -2 10 -4 10 -3 0
-8 -4 -11 -10z"/>
<path d="M3040 5326 c0 -2 8 -10 18 -17 15 -13 16 -12 3 4 -13 16 -21 21 -21
13z"/>
<path d="M2629 5133 c-13 -16 -12 -17 4 -4 16 13 21 21 13 21 -2 0 -10 -8 -17
-17z"/>
<path d="M3700 4931 c0 -5 5 -13 10 -16 6 -3 10 -2 10 4 0 5 -4 13 -10 16 -5
3 -10 2 -10 -4z"/>
<path d="M1890 4690 c-9 -6 -10 -10 -3 -10 6 0 15 5 18 10 8 12 4 12 -15 0z"/>
<path d="M1661 4444 c0 -11 3 -14 6 -6 3 7 2 16 -1 19 -3 4 -6 -2 -5 -13z"/>
<path d="M4250 4603 c0 -6 8 -17 18 -24 16 -13 16 -13 2 6 -8 11 -16 22 -17
24 -2 2 -3 0 -3 -6z"/>
<path d="M2920 5209 c-22 -18 -22 -19 -3 -10 12 6 25 16 28 21 9 15 3 12 -25
-11z"/>
<path d="M3503 5165 c0 -8 4 -12 9 -9 5 3 6 10 3 15 -9 13 -12 11 -12 -6z"/>
<path d="M2934 4737 c-127 -180 -376 -517 -383 -517 -4 0 -32 23 -63 50 l-57
51 -84 -88 c-46 -49 -113 -120 -148 -158 -101 -112 -143 -145 -324 -262 -183
-118 -463 -291 -545 -336 -27 -16 -50 -32 -50 -37 0 -9 268 111 347 156 109
62 189 108 203 119 15 13 92 56 240 135 47 25 84 50 82 55 -2 6 -10 9 -19 7
-8 -2 -12 1 -8 7 3 6 1 11 -4 11 -6 0 -11 8 -10 18 0 9 3 12 5 5 4 -8 13 -5
29 9 14 12 22 25 19 30 -3 4 2 11 10 14 9 3 13 10 10 15 -3 5 0 8 7 7 7 -2 13
4 14 12 0 8 10 19 23 25 12 5 20 16 17 23 -3 7 -1 11 3 9 10 -7 32 19 24 29
-4 4 -1 4 6 0 7 -4 12 -1 12 8 0 9 4 15 9 13 5 -1 10 1 10 5 3 14 56 64 64 60
4 -2 6 2 5 9 -2 7 7 18 19 24 13 7 20 15 15 20 -4 4 3 5 16 2 15 -3 20 -1 15
6 -3 7 6 -1 20 -16 15 -15 27 -32 27 -36 0 -11 39 -24 68 -23 16 1 22 -3 19
-12 -3 -8 -3 -17 1 -21 10 -10 9 -29 -3 -37 -6 -5 -6 -8 3 -8 6 0 12 -5 12
-11 0 -5 -5 -7 -12 -3 -7 4 -8 3 -4 -4 4 -7 5 -12 1 -12 -4 0 -20 32 -30 60
-9 27 -19 39 -28 33 -6 -3 -7 -1 -3 5 4 7 1 12 -8 12 -8 0 -21 8 -28 18 -7 9
-27 18 -44 18 -26 1 -31 -2 -27 -17 4 -15 0 -19 -18 -19 -13 0 -19 -4 -14 -8
13 -9 13 -27 1 -39 -5 -5 -6 -2 -1 6 5 9 4 12 -3 7 -6 -4 -8 -14 -5 -23 5 -12
3 -14 -8 -8 -8 4 -11 5 -7 0 10 -10 -11 -37 -23 -29 -5 3 -9 -1 -9 -9 0 -8 -8
-21 -17 -28 -17 -13 -17 -13 -3 6 14 19 14 19 -3 6 -10 -8 -16 -20 -13 -27 5
-14 -17 -37 -27 -27 -4 3 -7 -1 -7 -10 0 -9 -5 -19 -12 -23 -6 -4 -8 -3 -5 3
11 17 -17 22 -38 7 -10 -8 -14 -14 -9 -14 6 0 16 6 23 13 11 10 13 9 8 -5 -4
-13 0 -15 21 -13 29 3 101 77 160 165 20 30 37 57 39 59 7 11 73 -48 87 -77
16 -32 15 -36 -3 -65 -24 -39 -139 -182 -243 -305 -43 -50 -78 -93 -78 -96 0
-12 104 61 168 118 38 33 84 74 102 90 51 45 161 118 168 112 3 -3 -22 -35
-56 -70 -34 -35 -62 -67 -62 -70 0 -14 160 113 223 176 37 37 72 68 77 68 14
0 -32 -102 -78 -170 -24 -36 -72 -105 -108 -154 -35 -50 -64 -94 -64 -98 0 -5
28 14 63 43 76 62 150 153 263 320 102 153 106 157 136 135 13 -9 33 -23 45
-32 35 -25 48 -12 22 20 -13 16 -40 62 -60 103 -31 61 -39 71 -50 61 -27 -26
-72 -58 -81 -58 -5 0 2 15 16 33 57 75 78 140 83 265 4 90 2 121 -9 132 -7 8
-12 13 -11 11 2 -2 -3 -11 -10 -19 -10 -13 -9 -15 3 -8 8 4 6 0 -4 -8 -18 -14
-18 -16 -3 -16 14 0 16 -4 7 -19 -12 -24 -13 -42 -1 -22 5 8 8 -1 7 -27 0 -22
-3 -39 -6 -37 -3 1 -6 -18 -7 -44 -2 -55 -25 -127 -39 -124 -6 1 -11 -4 -11
-12 0 -8 4 -12 9 -9 4 3 5 -2 2 -10 -3 -9 -10 -13 -15 -10 -5 3 -9 2 -8 -3 3
-18 -1 -34 -8 -30 -5 3 -9 -8 -10 -24 -2 -20 2 -29 13 -29 8 0 13 -4 10 -8 -3
-5 1 -9 9 -9 8 0 13 5 12 10 -1 6 9 13 23 17 14 4 24 12 23 18 -2 6 4 9 12 6
8 -3 14 -9 13 -12 -1 -4 2 -18 6 -31 11 -33 -9 -51 -30 -25 -14 17 -14 17 -6
0 7 -14 3 -25 -16 -45 -13 -14 -28 -36 -33 -49 -5 -14 -16 -22 -26 -20 -10 2
-17 -2 -15 -10 1 -7 -5 -27 -14 -44 -12 -23 -18 -28 -24 -17 -5 8 -4 19 3 28
9 12 9 13 0 7 -7 -4 -13 -3 -13 3 0 5 6 12 13 14 6 3 3 6 -7 6 -18 1 -18 2 -3
14 13 9 14 16 6 27 -9 12 -10 12 -5 -4 5 -14 2 -17 -9 -12 -10 4 -14 2 -9 -5
4 -7 0 -9 -14 -5 -11 4 -23 2 -27 -5 -6 -8 -10 -7 -17 2 -6 11 -8 9 -6 -6 2
-11 -2 -19 -9 -18 -8 2 -10 -4 -6 -15 6 -15 5 -15 -10 -3 -10 8 -20 11 -24 7
-3 -3 -1 -6 5 -6 19 0 14 -18 -7 -25 -13 -4 -18 -11 -14 -22 5 -12 2 -15 -10
-10 -11 4 -17 1 -17 -8 0 -8 -5 -15 -11 -15 -5 0 -8 4 -5 9 11 17 -38 21 -56
4 -13 -12 -18 -13 -18 -3 0 8 -8 4 -19 -9 -11 -13 -25 -20 -31 -16 -6 3 -9 2
-8 -3 3 -10 -62 -72 -76 -72 -5 0 -17 -10 -27 -22 -11 -11 -19 -18 -19 -14 0
4 -12 -6 -26 -21 -15 -15 -20 -19 -13 -8 7 11 33 39 57 63 26 26 40 47 36 55
-6 8 -3 8 8 -1 13 -10 18 -10 24 -1 4 8 3 9 -4 5 -7 -4 -12 -2 -12 3 0 6 8 11
18 11 14 0 15 2 2 10 -12 7 -10 11 10 19 14 5 18 10 10 11 -13 0 -13 1 0 10 9
6 17 5 23 -3 6 -9 7 -8 6 3 -3 28 1 41 10 35 5 -3 13 0 17 6 5 8 3 9 -5 4 -9
-5 -12 -2 -9 10 1 10 12 19 23 21 31 5 44 30 35 70 -8 33 -4 40 54 112 74 93
96 123 96 136 0 5 -8 2 -18 -7 -10 -10 -22 -14 -25 -10 -6 6 -11 -10 -9 -29 1
-3 -6 -12 -16 -20 -15 -12 -16 -11 -3 5 7 9 10 17 7 17 -4 0 -2 9 4 20 6 11
15 18 21 15 5 -4 10 -1 10 4 1 6 2 15 3 20 0 5 5 13 10 18 5 5 6 3 2 -4 -4 -7
-5 -13 -1 -13 3 0 10 12 15 26 7 18 15 24 27 20 13 -5 14 -4 3 9 -11 13 -8 20
20 45 18 16 37 27 43 23 6 -3 7 -1 3 6 -4 6 -12 8 -18 5 -5 -4 -2 5 7 20 17
25 34 38 19 14 -4 -7 -3 -8 5 -4 6 4 9 11 7 14 -2 4 5 19 16 32 11 14 17 19
13 13 -10 -20 1 -15 31 12 15 14 23 25 18 25 -5 0 -2 5 6 10 10 6 11 10 3 10
-7 0 -13 4 -13 8 0 11 39 52 49 52 4 0 20 -19 35 -42 l28 -43 -26 24 c-14 14
-28 22 -30 20 -6 -6 36 -67 230 -339 88 -124 183 -259 212 -300 115 -167 148
-209 230 -293 81 -82 152 -137 152 -118 0 4 -9 16 -21 27 -39 35 -293 383
-286 391 6 6 117 -67 117 -77 0 -4 11 -12 24 -18 24 -11 24 -11 12 21 -8 18
-19 62 -26 99 -9 44 -17 65 -25 61 -16 -5 -16 -56 -1 -65 7 -5 6 -8 -4 -8 -12
0 -13 -2 -1 -9 7 -5 11 -14 7 -19 -10 -16 -38 -2 -32 15 3 8 1 11 -4 8 -15 -9
-51 5 -44 17 4 5 -5 3 -19 -7 -16 -10 -27 -12 -31 -6 -4 6 -12 8 -19 6 -7 -3
-23 12 -37 32 -14 21 -38 53 -55 72 -16 19 -23 31 -15 26 8 -5 2 5 -15 23 -16
18 -30 35 -31 40 -2 21 -17 41 -27 35 -6 -3 -7 -1 -3 5 3 6 -2 15 -11 21 -16
9 -16 10 4 8 12 0 21 -4 20 -7 -1 -3 9 -19 22 -37 13 -17 23 -34 22 -37 -1
-10 44 -52 52 -49 4 2 7 -1 7 -7 0 -20 35 -57 49 -52 8 3 11 0 8 -5 -4 -6 3
-8 18 -5 13 2 27 13 30 23 4 10 17 27 30 37 13 11 22 21 20 24 -3 3 4 4 15 3
11 -1 26 -8 33 -15 10 -12 9 -12 -5 -2 -12 10 -18 10 -24 1 -4 -7 -3 -9 4 -5
6 3 13 2 17 -4 4 -6 11 -8 16 -4 11 6 73 -56 64 -64 -3 -3 -12 3 -20 14 -12
16 -14 16 -15 3 0 -19 194 -264 241 -303 18 -16 49 -35 69 -43 64 -28 89 -42
293 -167 86 -53 160 -96 163 -96 3 0 62 -27 131 -60 69 -33 130 -60 136 -60
13 0 -63 51 -213 144 -229 141 -505 322 -546 356 -16 14 -81 84 -146 155 -64
72 -132 145 -152 164 l-35 34 -53 -48 c-29 -27 -56 -54 -60 -60 -9 -13 -1 -23
-169 200 -262 346 -314 414 -319 414 -3 0 -28 -32 -56 -72z m4 -62 c-11 -25
-28 -34 -28 -16 0 9 28 41 35 41 3 0 -1 -11 -7 -25z m156 -23 c3 -5 -1 -9 -9
-9 -8 0 -12 4 -9 9 3 4 7 8 9 8 2 0 6 -4 9 -8z m21 -51 c-6 -5 -25 10 -25 20
0 5 6 4 14 -3 8 -7 12 -15 11 -17z m49 -57 c6 -6 21 -23 33 -37 20 -24 20 -26
3 -24 -10 1 -17 4 -15 7 2 3 -9 21 -25 40 -16 19 -26 38 -23 44 4 6 9 4 11 -4
3 -8 10 -20 16 -26z m61 -84 c3 -5 2 -10 -4 -10 -5 0 -13 5 -16 10 -3 6 -2 10
4 10 5 0 13 -4 16 -10z m20 -19 c-3 -6 6 -21 20 -34 20 -18 22 -24 10 -24 -9
0 -22 11 -28 24 -5 13 -15 23 -21 23 -6 0 -4 5 4 10 19 12 23 12 15 1z m-635
-205 c0 -2 -8 -10 -17 -17 -16 -13 -17 -12 -4 4 13 16 21 21 21 13z m1103 -96
c7 -6 21 -17 32 -25 l20 -15 -20 7 c-18 6 -19 5 -5 -13 14 -18 14 -18 -3 -5
-9 8 -15 16 -13 19 3 2 -5 13 -17 23 -12 10 -18 18 -14 19 4 0 13 -5 20 -10z
m-213 -61 c0 -6 -4 -7 -10 -4 -5 3 -10 11 -10 16 0 6 5 7 10 4 6 -3 10 -11 10
-16z m295 -27 c-2 -3 7 -14 21 -24 14 -11 23 -23 20 -25 -3 -3 5 -14 17 -24
19 -16 19 -18 5 -19 -10 0 -26 16 -37 38 -11 20 -20 33 -21 28 0 -13 -40 40
-40 55 0 8 7 6 20 -6 11 -10 18 -20 15 -23z m-275 -2 c8 -5 11 -10 5 -10 -5 0
-4 -4 4 -9 9 -6 10 -11 2 -15 -6 -4 -11 -3 -11 3 0 5 -7 17 -16 25 -17 18 -7
21 16 6z m-684 -42 c-1 -13 -6 -22 -9 -20 -7 2 -7 10 0 30 8 20 13 14 9 -10z
m716 -15 c0 -4 9 -20 19 -35 10 -14 19 -30 19 -35 0 -12 -44 58 -46 75 -2 8 0
12 3 9 2 -3 5 -9 5 -14z m385 -82 c24 -19 40 -37 38 -42 -3 -4 4 -5 15 -2 12
3 22 -1 26 -11 3 -9 10 -13 15 -10 5 3 9 -3 9 -12 0 -16 -1 -16 -17 -1 -18 16
-21 17 -48 17 -8 0 -15 6 -15 14 0 20 -26 40 -35 26 -4 -6 -1 -9 6 -8 6 2 14
-4 16 -12 4 -12 3 -12 -5 -2 -5 8 -13 14 -17 15 -4 1 -23 17 -43 35 -32 31
-33 33 -11 30 14 -2 43 -19 66 -37z m-1127 23 c0 -8 -19 -13 -24 -6 -3 5 1 9
9 9 8 0 15 -2 15 -3z m-696 -20 c9 -23 8 -27 -8 -21 -7 3 -29 -5 -49 -18 -19
-13 -37 -21 -41 -18 -3 4 -6 1 -6 -5 0 -7 -7 -12 -15 -12 -13 0 -12 3 2 19 9
11 23 17 31 13 9 -3 13 -1 9 5 -4 6 1 17 10 24 12 10 14 10 9 2 -4 -7 -2 -13
3 -13 6 0 11 6 11 14 0 13 13 23 31 25 4 1 10 -6 13 -15z m659 -9 c-3 -9 -8
-14 -10 -11 -3 3 -2 9 2 15 9 16 15 13 8 -4z m-13 -29 c0 -2 -8 -10 -17 -17
-16 -13 -17 -12 -4 4 13 16 21 21 21 13z m-803 -47 c-9 -6 -14 -15 -11 -21 4
-6 3 -8 -4 -4 -6 3 -17 0 -24 -8 -19 -18 -79 -49 -85 -43 -2 3 5 8 16 12 12 3
21 11 21 16 0 6 3 8 8 6 4 -3 25 10 47 28 22 19 42 31 45 29 3 -3 -3 -10 -13
-15z m2114 -16 c13 -16 12 -17 -3 -4 -17 13 -22 21 -14 21 2 0 10 -8 17 -17z
m123 -79 c3 -8 2 -12 -4 -9 -6 3 -10 10 -10 16 0 14 7 11 14 -7z m60 -29 c11
-8 18 -17 15 -19 -2 -2 -15 4 -28 15 -27 22 -15 26 13 4z m-2474 0 c0 -7 -30
-13 -34 -7 -3 4 4 9 15 9 10 1 19 0 19 -2z"/>
<path d="M3890 3931 c0 -6 4 -13 10 -16 6 -3 7 1 4 9 -7 18 -14 21 -14 7z"/>
<path d="M2774 4423 c-3 -16 -15 -54 -25 -87 -11 -32 -17 -61 -15 -64 3 -3 1
-11 -6 -19 -6 -7 -8 -16 -5 -20 4 -3 12 7 19 23 7 16 20 37 28 48 30 37 57 66
61 63 2 -1 3 0 1 2 -1 3 -12 6 -23 8 -13 2 -18 -1 -13 -9 4 -6 3 -8 -4 -4 -6
3 -9 24 -8 46 4 46 -1 52 -10 13z"/>
<path d="M3120 4417 c0 -7 6 -21 14 -32 7 -11 16 -33 20 -49 8 -31 50 -93 78
-114 9 -7 24 -20 33 -28 26 -26 28 -10 4 32 -26 44 -139 204 -145 204 -2 0 -4
-6 -4 -13z"/>
<path d="M2780 4280 c-23 -39 -76 -101 -120 -144 -43 -41 -76 -77 -73 -79 5
-6 73 32 73 40 0 2 -5 1 -12 -3 -7 -5 -8 -3 -3 5 4 7 16 11 26 8 10 -3 22 0
26 5 3 7 1 8 -5 4 -18 -11 -14 3 8 26 11 12 23 18 27 15 3 -4 1 -7 -5 -7 -7 0
-12 -5 -12 -11 0 -8 5 -8 15 1 8 7 13 16 10 20 -7 11 20 32 29 23 4 -4 4 1 0
12 -6 15 -4 17 12 11 15 -6 16 -5 7 5 -10 10 -7 20 14 48 15 20 31 39 36 42 5
4 4 8 -3 11 -8 2 -7 8 6 18 10 8 15 10 12 5 -4 -6 -2 -17 4 -25 8 -13 9 -12 5
2 -7 19 15 31 32 17 8 -6 8 -5 1 3 -5 6 -22 13 -39 14 -26 3 -33 -3 -71 -66z"/>
<path d="M3630 4200 c0 -5 5 -10 11 -10 5 0 7 5 4 10 -3 6 -8 10 -11 10 -2 0
-4 -4 -4 -10z"/>
<path d="M2549 4171 c6 -10 7 -22 3 -26 -4 -5 -1 -5 6 -1 9 5 9 12 2 27 -6 10
-13 19 -16 19 -2 0 0 -8 5 -19z"/>
<path d="M2905 4120 c3 -5 8 -10 11 -10 2 0 4 5 4 10 0 6 -5 10 -11 10 -5 0
-7 -4 -4 -10z"/>
<path d="M2279 4093 l-24 -28 28 24 c25 23 32 31 24 31 -2 0 -14 -12 -28 -27z"/>
<path d="M2689 4084 c-23 -25 -23 -26 -2 -13 13 7 25 19 27 26 8 19 2 16 -25
-13z"/>
<path d="M3170 4042 c0 -34 74 -162 146 -252 90 -112 113 -137 114 -119 0 35
-83 178 -160 274 -76 96 -100 118 -100 97z m121 -169 c13 -16 12 -17 -3 -4
-17 13 -22 21 -14 21 2 0 10 -8 17 -17z"/>
<path d="M2310 4002 c-37 -17 -68 -45 -64 -57 7 -16 -26 -56 -39 -48 -6 3 -7
1 -4 -4 6 -10 -53 -67 -61 -59 -6 6 35 45 42 40 4 -2 2 1 -3 7 -13 16 -63 -21
-100 -74 -16 -23 -45 -58 -65 -76 -41 -40 -47 -55 -13 -38 99 53 382 319 335
316 -7 0 -20 -3 -28 -7z"/>
<path d="M3765 3920 c-3 -6 1 -7 9 -4 18 7 21 14 7 14 -6 0 -13 -4 -16 -10z"/>
<path d="M3066 3583 c-3 -21 -10 -85 -16 -143 -6 -58 -20 -183 -31 -279 -12
-95 -19 -184 -16 -197 2 -13 0 -24 -4 -24 -10 0 -10 0 -14 45 -2 17 -9 80 -15
140 -35 336 -52 475 -57 475 -2 0 -34 -22 -70 -50 -67 -51 -254 -147 -353
-182 -79 -28 -191 -34 -281 -15 -99 21 -215 31 -223 19 -3 -5 20 -12 52 -15
31 -4 83 -16 115 -27 32 -11 63 -17 69 -14 6 4 8 3 5 -3 -8 -12 -86 -27 -237
-43 -102 -11 -108 -11 -205 16 -91 26 -115 28 -277 28 -97 1 -174 -2 -170 -6
12 -12 133 -28 209 -28 40 0 94 -7 120 -16 26 -9 85 -17 131 -19 45 -1 86 -6
90 -10 4 -4 -4 -4 -17 0 -16 5 -21 4 -17 -4 4 -6 3 -11 -3 -11 -5 0 -18 -3
-28 -6 -15 -5 -15 -4 -3 5 13 9 13 11 -2 11 -10 0 -18 -3 -18 -7 -1 -9 -50
-47 -50 -39 0 3 10 14 22 26 22 20 22 20 1 20 -11 0 -23 -6 -26 -14 -10 -25
-129 -58 -183 -50 -39 5 -47 3 -37 -7 7 -7 47 -14 91 -17 71 -4 88 -1 161 27
45 17 103 34 129 37 26 3 98 12 160 21 101 15 111 18 90 30 -13 7 -18 12 -13
12 6 1 17 -3 25 -8 8 -6 18 -7 23 -4 5 3 4 9 -3 13 -7 5 -2 8 14 8 16 0 23 -5
19 -12 -4 -6 0 -5 9 2 9 7 14 21 11 30 -4 16 5 18 92 17 59 -1 91 2 83 8 -8 5
-1 7 19 3 18 -3 35 -2 37 3 3 5 38 18 78 31 100 31 206 83 250 123 20 18 44
40 54 48 16 12 17 12 9 -1 -5 -9 1 -7 14 5 l22 19 -7 -28 c-5 -21 -4 -27 5
-22 6 4 11 1 11 -8 0 -8 -4 -18 -10 -21 -5 -3 -10 -12 -10 -18 0 -7 4 -6 10 3
8 12 10 10 9 -10 0 -14 2 -54 6 -90 4 -36 8 -83 10 -105 1 -22 8 -66 14 -98 7
-31 9 -62 6 -67 -3 -6 -3 -16 2 -22 4 -7 8 -27 8 -43 1 -17 5 -36 9 -44 5 -7
4 -17 -1 -22 -11 -11 -13 -4 -16 58 -1 28 -7 43 -15 43 -7 0 -11 4 -7 9 3 6
-3 8 -14 6 -11 -2 -25 2 -31 9 -10 14 -4 46 9 46 9 0 9 2 16 110 5 84 -6 140
-32 169 -11 13 -15 12 -31 -2 -10 -9 -22 -14 -26 -10 -4 4 -4 0 -1 -9 4 -11 0
-18 -13 -22 -11 -4 -22 -16 -25 -27 -3 -12 -10 -18 -15 -15 -5 3 -9 -2 -8 -11
0 -9 -5 -18 -13 -21 -8 -3 -11 0 -7 7 5 7 1 9 -11 4 -17 -6 -17 -5 1 15 11 12
15 22 10 22 -5 0 -2 5 6 11 10 7 11 9 2 7 -8 -2 -13 -8 -13 -13 0 -6 -8 -19
-18 -30 -9 -11 -22 -31 -28 -45 -13 -28 -53 -225 -53 -255 1 -31 25 16 55 109
30 92 40 107 120 204 l60 73 7 -48 c16 -117 10 -177 -24 -244 -70 -137 -318
-344 -553 -461 -139 -69 -193 -103 -182 -115 4 -3 19 3 34 13 40 27 75 45 79
41 2 -2 -10 -30 -26 -62 -30 -59 -33 -85 -5 -49 9 10 25 38 37 62 16 33 33 49
71 68 l50 26 -7 -97 c-3 -54 -11 -106 -17 -116 -18 -34 10 -21 31 14 14 23 20
50 20 94 0 91 9 105 98 158 97 57 139 91 130 101 -4 4 -15 1 -24 -7 -16 -13
-16 -12 -5 9 7 14 18 21 26 18 8 -3 17 0 21 6 4 7 3 8 -4 4 -7 -4 -12 -4 -12
-1 0 12 53 49 74 52 19 3 19 3 1 -17 -10 -11 -22 -17 -28 -13 -5 3 -7 1 -3 -5
3 -6 1 -14 -5 -17 -5 -4 -8 -14 -5 -22 4 -10 2 -13 -8 -10 -15 6 -37 -48 -50
-121 -3 -18 -21 -57 -40 -85 -36 -55 -79 -183 -78 -231 1 -36 22 -61 22 -26 0
42 50 176 81 219 16 23 29 45 29 50 0 5 7 12 16 15 8 3 13 2 10 -3 -7 -10 31
-141 45 -156 13 -13 11 37 -6 130 -27 149 -16 207 53 278 20 20 39 37 42 37 8
0 -6 -212 -16 -235 -7 -17 -6 -18 8 -7 19 15 32 68 47 182 7 57 17 93 31 110
11 14 32 44 47 67 16 23 31 42 36 43 4 0 7 -18 7 -39 0 -22 9 -88 21 -146 19
-102 19 -109 3 -158 -31 -97 -91 -183 -231 -327 -52 -54 -52 -56 -42 -93 6
-24 7 -49 0 -72 -8 -28 -7 -35 5 -35 20 0 34 42 34 99 0 42 4 51 45 91 25 24
45 50 45 57 0 7 4 13 9 13 6 0 4 -15 -4 -34 -11 -26 -12 -46 -4 -92 5 -33 10
-92 9 -131 0 -43 4 -73 10 -73 5 0 10 10 11 23 0 12 3 33 6 47 8 31 7 63 -2
165 l-7 80 56 63 c30 34 63 76 71 92 9 17 18 30 21 30 3 0 4 -127 2 -282 -3
-265 1 -328 22 -328 13 0 23 150 24 379 1 164 -2 218 -12 230 -8 9 -11 10 -7
4 3 -7 1 -13 -5 -13 -6 0 -13 7 -16 15 -4 8 -10 12 -15 9 -5 -3 -9 1 -10 8 0
7 -4 3 -9 -9 -5 -13 -14 -23 -20 -23 -10 0 16 49 33 61 5 3 8 8 6 10 -7 12 14
99 24 99 7 0 6 4 -3 10 -8 5 -12 10 -8 10 4 0 2 14 -3 30 -5 17 -13 42 -18 58
-4 15 -4 37 0 51 8 19 12 21 24 11 9 -7 19 -10 23 -6 7 7 8 12 11 38 1 7 4 8
10 2 5 -5 5 -34 0 -69 -13 -97 -17 -185 -8 -185 5 0 9 -5 9 -11 0 -5 -5 -7
-10 -4 -6 4 -2 -8 10 -27 24 -40 25 -48 5 -48 -25 0 24 -85 90 -157 62 -68 60
-61 56 -213 -3 -85 5 -140 19 -140 4 0 8 35 9 78 1 42 5 103 9 135 l7 59 46
-36 c46 -34 59 -62 59 -122 0 -13 4 -24 9 -24 14 0 20 29 16 79 -2 37 -9 50
-36 74 -175 151 -217 202 -257 310 -24 63 -27 114 -13 198 6 30 13 83 17 118
l6 64 24 -29 c65 -77 73 -95 90 -224 9 -69 19 -132 22 -140 10 -24 18 107 12
193 -3 42 -3 77 0 76 3 0 23 -22 46 -48 63 -75 79 -137 67 -279 -5 -65 -8
-119 -6 -121 10 -13 26 24 36 82 l11 65 26 -42 c15 -23 33 -59 40 -80 12 -39
10 -144 -5 -181 -7 -18 -6 -18 8 -5 8 8 22 35 30 60 l15 45 16 -39 c9 -21 16
-45 16 -53 0 -8 5 -11 10 -8 16 10 12 49 -11 102 -11 26 -26 65 -33 85 -7 20
-29 61 -48 90 -19 29 -42 80 -50 113 -9 33 -19 69 -24 80 -4 11 18 -4 53 -35
34 -31 82 -66 107 -79 60 -29 82 -60 96 -129 20 -102 30 -130 46 -136 13 -5
15 -1 10 19 -12 46 -37 198 -33 201 2 2 22 -6 45 -17 26 -13 52 -38 71 -68 17
-26 43 -53 59 -60 l27 -13 -21 24 c-11 12 -29 41 -39 63 -19 42 -53 85 -67 85
-5 0 -47 19 -94 42 -84 41 -142 85 -324 246 -127 113 -158 147 -186 210 -20
45 -22 59 -14 100 5 26 12 73 15 105 l7 58 80 -73 c97 -87 109 -105 149 -228
34 -102 65 -154 53 -90 -10 58 -54 233 -60 239 -3 3 -10 -1 -15 -9 -8 -11 -9
-9 -4 8 4 12 3 22 -2 21 -15 -4 -43 13 -37 22 3 5 0 9 -6 9 -6 0 -8 5 -5 10 4
6 3 10 -2 9 -23 -4 -33 3 -34 24 0 12 -3 16 -6 10 -9 -22 -54 16 -48 41 2 11
2 15 -1 9 -3 -7 -10 -13 -15 -13 -6 0 -8 4 -5 8 3 5 -1 9 -9 10 -8 1 -21 3
-29 4 -8 1 -12 8 -9 17 2 9 -3 3 -12 -12 -9 -16 -14 -35 -11 -43 3 -8 2 -13
-3 -10 -5 3 -8 -15 -7 -40 1 -25 -2 -48 -6 -50 -7 -5 -13 42 -10 76 9 81 15
116 22 124 5 5 5 17 -1 28 -7 12 -6 24 0 36 7 10 11 12 11 4 0 -7 4 -11 9 -7
5 3 18 -6 30 -20 11 -15 23 -25 27 -25 4 1 10 -2 13 -7 3 -4 15 -13 25 -19 11
-6 22 -16 24 -24 3 -8 -7 -5 -26 8 -24 18 -31 19 -35 8 -4 -9 3 -16 19 -20 13
-4 24 -14 24 -22 0 -13 3 -14 13 -5 11 8 19 5 35 -12 12 -13 20 -27 17 -30 -3
-4 -2 -5 2 -2 3 3 11 1 17 -5 8 -6 12 -3 12 10 0 10 -3 17 -7 15 -3 -3 -17 7
-29 20 -30 32 -20 32 30 0 22 -14 45 -25 51 -25 7 0 17 -7 23 -16 7 -8 28 -17
47 -19 19 -2 51 -10 71 -18 20 -9 39 -13 42 -9 3 3 6 0 6 -7 0 -7 7 -10 18 -7
9 3 43 2 74 -3 31 -4 55 -5 53 -2 -1 3 20 7 48 8 29 2 88 12 131 23 44 11 94
20 113 20 18 0 33 5 33 11 0 14 -132 4 -233 -17 -139 -29 -256 -12 -403 56
-98 45 -193 108 -251 167 -24 24 -45 43 -47 43 -3 0 -7 -17 -10 -37z m-339
-306 c-6 -20 -26 -19 -24 1 1 12 6 18 14 15 8 -3 12 -10 10 -16z m348 -31 c-2
-14 -6 -29 -9 -34 -3 -6 1 -23 9 -38 8 -16 15 -37 15 -47 0 -9 11 -27 24 -38
15 -13 22 -27 19 -37 -4 -10 -2 -13 6 -8 6 4 11 4 10 -1 -3 -18 2 -28 9 -17 4
7 16 0 32 -20 14 -16 19 -26 11 -22 -10 6 -12 5 -7 -2 4 -7 13 -12 20 -12 8 0
19 -7 26 -15 7 -8 16 -13 20 -10 5 3 6 -4 3 -14 -5 -18 -7 -18 -30 7 -13 15
-22 21 -18 15 3 -7 2 -13 -2 -13 -13 0 -43 39 -40 52 1 7 -5 12 -14 13 -20 0
-71 59 -61 70 4 4 -4 2 -18 -6 -14 -7 -29 -12 -34 -11 -5 2 -6 -4 -3 -12 4 -9
2 -18 -3 -21 -5 -3 -6 12 -3 32 3 21 6 61 8 88 5 68 16 125 25 125 4 0 6 -11
5 -24z m-174 -183 c2 1 -7 -9 -21 -23 -14 -13 -29 -23 -35 -21 -5 1 -7 -1 -3
-5 10 -9 -11 -36 -23 -28 -5 3 -6 -1 -3 -9 3 -10 -3 -16 -21 -19 -19 -4 -23
-2 -15 7 5 6 6 16 2 20 -4 5 -2 5 4 2 6 -3 26 18 45 47 30 47 36 52 50 40 9
-8 18 -13 20 -11z m-113 -117 c26 5 26 5 8 -10 -11 -9 -16 -16 -10 -17 5 0 -2
-5 -15 -10 -17 -7 -27 -6 -31 2 -5 6 -9 3 -13 -10 -3 -12 -11 -21 -19 -21 -11
0 -11 2 0 9 8 4 13 11 13 15 -2 11 34 55 37 45 2 -5 16 -6 30 -3z m536 -77
c-3 -5 1 -6 9 -3 8 3 17 -2 21 -11 3 -9 10 -14 14 -11 5 3 9 -1 9 -8 0 -7 -8
-18 -18 -24 -15 -9 -20 -5 -35 26 -9 20 -21 40 -27 43 -5 4 -6 12 -2 19 6 10
11 9 21 -5 7 -10 11 -22 8 -26z m140 -118 c-3 -3 -15 6 -27 18 l-22 24 27 -19
c14 -10 24 -21 22 -23z m-954 -17 c-8 -8 -23 -20 -34 -25 -13 -7 -9 -1 9 15
34 29 43 33 25 10z m991 -1 c13 -16 12 -17 -3 -4 -17 13 -22 21 -14 21 2 0 10
-8 17 -17z m-876 -63 c3 -5 1 -10 -4 -10 -6 0 -11 5 -11 10 0 6 2 10 4 10 3 0
8 -4 11 -10z m-240 -19 c-3 -6 -11 -11 -17 -11 -6 0 -6 6 2 15 14 17 26 13 15
-4z m1235 7 c0 -9 4 -8 10 2 6 9 10 10 10 3 0 -19 -17 -24 -30 -8 -9 10 -9 15
-1 15 6 0 11 -6 11 -12z m-996 -17 c3 -5 -1 -11 -9 -14 -9 -4 -12 -1 -8 9 6
16 10 17 17 5z m447 -38 c13 -16 12 -17 -3 -4 -10 7 -18 15 -18 17 0 8 8 3 21
-13z m-144 -26 c0 -8 -6 -14 -14 -14 -9 0 -10 4 -2 14 6 7 12 13 14 13 1 0 2
-6 2 -13z m288 -156 c3 -5 2 -12 -3 -15 -5 -3 -9 1 -9 9 0 17 3 19 12 6z"/>
<path d="M3053 3169 c-2 -23 3 -25 10 -4 4 8 3 16 -1 19 -4 3 -9 -4 -9 -15z"/>
<path d="M3057 3089 c7 -7 15 -10 18 -7 3 3 -2 9 -12 12 -14 6 -15 5 -6 -5z"/>
<path d="M2851 3047 c-13 -21 -12 -21 5 -5 10 10 16 20 13 22 -3 3 -11 -5 -18
-17z"/>
<path d="M3107 3526 c-4 -9 -2 -18 4 -21 5 -4 6 -12 3 -18 -4 -7 -4 -9 1 -5 4
4 14 0 21 -10 10 -12 9 -4 -2 23 -20 49 -20 49 -27 31z"/>
<path d="M2815 3474 c-46 -40 -180 -110 -231 -120 -19 -3 -32 -10 -29 -14 3
-5 14 -6 25 -3 11 3 20 1 20 -3 0 -9 -29 -15 -87 -18 -18 0 -33 -4 -33 -8 0
-3 -10 -4 -22 -1 -19 4 -20 3 -8 -7 12 -9 9 -10 -15 -9 -16 2 -47 -3 -67 -10
-21 -7 -43 -9 -49 -5 -8 4 -9 3 -5 -4 4 -7 0 -13 -11 -14 -10 -1 -25 -2 -33
-4 -8 -1 -21 -2 -28 -3 -7 -1 -10 -5 -7 -11 3 -5 1 -10 -4 -10 -6 0 -11 5 -11
10 0 6 -13 4 -30 -5 -16 -9 -30 -13 -30 -9 0 12 -76 -41 -126 -87 -62 -57 -92
-73 -169 -88 -104 -21 -165 -43 -203 -77 l-37 -32 60 28 c37 17 92 33 143 40
46 6 95 16 109 21 14 5 27 8 29 6 10 -10 -107 -111 -162 -139 -35 -18 -64 -36
-64 -40 0 -10 131 32 165 53 29 18 51 42 126 142 82 109 186 163 416 217 73
17 139 33 148 36 27 11 16 -11 -12 -23 -16 -7 -78 -59 -139 -115 -96 -90 -119
-106 -180 -127 -84 -29 -156 -64 -173 -84 -8 -11 6 -8 46 9 32 13 70 24 84 24
15 0 38 9 52 20 29 23 60 29 39 8 -7 -7 -17 -13 -22 -13 -4 0 -27 -21 -50 -47
-45 -51 -119 -97 -240 -148 -77 -32 -139 -74 -128 -86 4 -3 22 3 40 14 18 11
62 29 98 42 36 12 80 33 98 46 17 14 32 20 32 14 0 -6 -7 -13 -15 -16 -8 -4
-31 -37 -51 -75 -20 -38 -40 -69 -45 -69 -5 0 -9 -4 -9 -10 0 -38 75 30 110
100 20 40 44 68 79 93 27 20 65 58 83 85 18 27 53 65 78 84 25 19 46 41 46 49
1 7 2 19 3 26 0 6 10 14 21 18 11 3 19 10 17 15 -1 4 25 31 58 59 33 28 67 58
76 66 18 17 29 19 29 7 0 -5 -15 -17 -34 -27 -19 -11 -33 -22 -31 -25 3 -4 -7
-12 -21 -19 -14 -6 -23 -15 -20 -20 3 -4 -3 -16 -14 -26 -13 -11 -20 -14 -20
-6 0 7 -5 9 -10 6 -8 -5 -7 -11 1 -21 6 -8 9 -15 5 -15 -3 -1 -10 -2 -15 -3
-5 0 -13 -5 -18 -10 -5 -5 -3 -6 5 -2 14 9 17 -10 2 -19 -6 -4 -8 -11 -5 -16
3 -5 0 -6 -8 -3 -14 5 -33 -39 -66 -156 -5 -19 -18 -59 -29 -87 -11 -29 -16
-53 -12 -53 16 0 47 55 89 160 80 197 94 221 175 286 82 65 115 116 94 142
-11 13 -10 15 5 9 12 -5 16 -3 11 5 -5 8 -2 9 9 5 10 -4 16 -2 14 5 -1 6 4 13
12 16 9 3 11 0 7 -9 -4 -8 1 -4 11 9 15 18 21 20 31 10 11 -11 12 -10 7 5 -8
20 5 23 24 5 9 -9 12 -9 7 -1 -3 6 -3 13 1 16 5 2 3 2 -4 1 -7 -2 -10 3 -6 11
3 8 9 12 14 9 5 -3 9 4 9 16 0 12 4 19 8 16 5 -3 9 1 9 9 0 8 -1 15 -1 15 -1
-1 -19 -17 -41 -36z m-125 -135 c0 -4 -9 -14 -20 -22 -11 -8 -17 -17 -13 -20
3 -4 1 -7 -5 -7 -7 0 -15 0 -19 0 -5 0 -8 4 -8 9 0 5 -3 13 -7 17 -13 13 -9
36 5 31 8 -3 20 -1 27 3 15 9 40 2 40 -11z m-580 -174 c-7 -8 -17 -15 -23 -15
-6 0 -2 7 9 15 25 19 30 19 14 0z m-112 -120 c-3 -3 -9 2 -12 12 -6 14 -5 15
5 6 7 -7 10 -15 7 -18z"/>
<path d="M3326 3368 c3 -4 11 -5 19 -1 21 7 19 12 -4 10 -11 0 -18 -5 -15 -9z"/>
<path d="M3345 3350 c-14 -22 48 -45 240 -90 173 -40 255 -82 346 -173 38 -39
69 -75 69 -79 0 -15 84 -99 114 -115 17 -9 47 -20 66 -23 19 -4 43 -11 53 -15
9 -4 17 -3 17 1 0 5 -24 20 -53 34 -28 14 -77 48 -107 77 -30 28 -75 71 -100
94 -25 23 -35 37 -22 30 13 -7 25 -18 28 -26 3 -8 11 -13 17 -11 7 1 8 1 3 -2
-17 -9 55 -31 137 -42 45 -6 101 -18 125 -26 24 -9 46 -14 49 -11 9 9 -88 53
-142 65 -163 35 -155 31 -230 102 -40 36 -85 71 -101 77 -71 25 -94 31 -88 22
3 -5 0 -9 -6 -9 -6 0 -13 6 -16 14 -3 8 -14 13 -25 11 -10 -2 -21 0 -24 4 -2
5 -26 12 -52 16 -27 4 -68 15 -92 26 -35 15 -41 16 -30 3 10 -12 3 -12 -39 4
-28 11 -54 17 -58 13 -4 -3 -4 0 0 7 5 8 0 12 -13 12 -11 0 -23 5 -26 10 -8
13 -32 13 -40 0z m30 -10 c3 -5 2 -10 -4 -10 -5 0 -13 5 -16 10 -3 6 -2 10 4
10 5 0 13 -4 16 -10z m530 -180 c3 -6 -1 -7 -9 -4 -18 7 -21 14 -7 14 6 0 13
-4 16 -10z"/>
<path d="M3454 3336 c11 -9 27 -16 35 -15 14 0 14 1 1 6 -8 3 -24 10 -35 15
-20 9 -20 9 -1 -6z"/>
<path d="M4265 3301 c-70 -22 -98 -25 -220 -24 -77 1 -171 8 -210 15 -38 8
-81 11 -95 7 -21 -6 -22 -7 -5 -9 11 -1 23 -2 28 -1 4 0 7 -5 7 -13 0 -8 5
-18 12 -22 7 -4 8 -3 4 4 -10 17 5 15 18 -2 7 -9 69 -21 186 -35 142 -16 184
-25 226 -46 71 -36 172 -52 225 -35 61 20 57 31 -10 24 -39 -5 -72 -2 -93 6
-36 14 -158 71 -158 73 0 1 20 3 44 5 24 1 63 9 86 17 25 9 77 15 125 15 87 0
183 14 198 29 6 6 -19 8 -64 5 -41 -3 -108 -2 -149 3 -66 7 -85 5 -155 -16z
m-70 -89 c-1 -1 -17 4 -35 12 -27 11 -30 15 -15 18 16 3 56 -21 50 -30z"/>
<path d="M3364 3302 c3 -6 0 -13 -6 -15 -9 -4 -7 -6 3 -6 16 -1 49 -31 49 -45
0 -5 -8 2 -18 14 -10 13 -25 21 -33 18 -9 -3 10 -30 62 -84 72 -74 106 -125
124 -184 13 -42 116 -249 127 -257 7 -4 9 1 5 13 -18 60 -80 234 -92 261 -8
17 -15 34 -15 38 0 11 83 -58 125 -105 22 -25 64 -68 93 -96 32 -31 65 -77 82
-113 19 -40 40 -67 62 -80 40 -25 47 -20 18 11 -12 13 -34 48 -47 78 -14 30
-30 58 -36 62 -9 6 -9 8 0 8 7 0 16 -6 20 -13 4 -8 35 -24 68 -37 33 -12 82
-31 109 -41 27 -11 51 -17 54 -14 7 7 14 3 -141 79 -125 62 -143 75 -201 138
-35 39 -69 68 -74 64 -5 -3 -13 1 -16 10 -3 8 -10 13 -15 10 -5 -3 -15 2 -22
11 -12 14 -11 15 11 8 14 -4 28 -13 32 -19 5 -7 8 -6 8 4 1 12 3 12 14 -2 7
-10 37 -22 65 -28 29 -5 73 -19 97 -29 24 -11 44 -16 44 -11 0 20 -78 60 -165
85 -115 34 -140 49 -255 160 -85 81 -154 136 -136 107z m107 -113 c8 -16 8
-20 -1 -17 -6 2 -11 7 -10 12 1 5 -4 13 -12 17 -9 6 -9 9 -1 9 7 0 17 -10 24
-21z m63 -64 c18 -19 30 -38 27 -41 -3 -4 2 -4 11 -1 12 4 22 -1 29 -16 11
-20 11 -21 -4 -9 -12 10 -21 11 -36 2 -17 -9 -20 -8 -14 6 5 13 3 15 -7 9 -10
-6 -12 -4 -7 8 4 11 -4 27 -23 47 -16 16 -25 30 -19 30 6 0 25 -16 43 -35z"/>
<path d="M2480 2636 c0 -2 8 -10 18 -17 15 -13 16 -12 3 4 -13 16 -21 21 -21
13z"/>
<path d="M2099 2603 c-13 -16 -12 -17 4 -4 9 7 17 15 17 17 0 8 -8 3 -21 -13z"/>
<path d="M4045 1783 c-33 -24 -67 -48 -75 -53 -8 -5 -12 -11 -9 -14 8 -8 155
59 164 74 4 7 1 18 -6 25 -12 11 -24 5 -74 -32z"/>
<path d="M3283 1715 c0 -8 4 -12 9 -9 5 3 6 10 3 15 -9 13 -12 11 -12 -6z"/>
<path d="M3940 1679 c-58 -26 -86 -53 -116 -111 -33 -64 -32 -133 1 -198 83
-163 340 -170 432 -12 21 35 27 58 27 106 0 106 -60 185 -167 219 -69 22 -121
21 -177 -4z m168 -23 c68 -35 102 -104 102 -204 0 -57 -4 -75 -27 -110 -17
-26 -44 -50 -69 -62 -85 -42 -193 8 -230 106 -34 89 -2 217 65 261 40 27 117
31 159 9z m126 -93 c10 -26 0 -25 -18 1 -13 20 -13 24 -2 20 8 -3 17 -13 20
-21z m-383 -41 c-6 -10 -8 -37 -5 -58 5 -35 4 -37 -9 -22 -17 21 -16 94 1 91
7 -2 12 2 12 9 0 6 3 9 6 6 3 -4 1 -15 -5 -26z m405 -42 c0 -61 -10 -80 -18
-35 -3 14 -1 25 4 25 5 0 4 9 -2 21 -9 15 -8 24 1 35 6 8 12 14 13 14 2 0 2
-27 2 -60z m-394 -94 c4 -17 1 -23 -9 -19 -7 3 -10 10 -7 15 4 6 0 14 -7 19
-11 7 -11 9 2 9 10 0 19 -10 21 -24z m374 -4 c-18 -16 -18 -16 -6 6 6 13 14
21 18 18 3 -4 -2 -14 -12 -24z"/>
<path d="M1230 1677 c14 -6 27 -13 30 -15 7 -5 11 -278 4 -338 -4 -40 -10 -54
-27 -62 -18 -8 -6 -11 58 -11 77 -1 79 0 58 17 -18 14 -22 29 -25 100 l-3 82
57 0 c47 0 59 -4 68 -20 18 -34 25 -23 23 37 -1 32 -2 60 -2 62 -1 2 -10 -8
-22 -23 -17 -22 -28 -26 -69 -26 -54 0 -62 9 -55 70 2 19 4 52 4 73 l1 37 56
0 c57 0 90 -12 111 -39 10 -13 12 -9 13 27 l0 42 -152 -1 c-122 0 -148 -3
-128 -12z m80 -213 c0 -8 -4 -12 -10 -9 -5 3 -10 13 -10 21 0 8 5 12 10 9 6
-3 10 -13 10 -21z m-7 -120 c3 -21 1 -31 -9 -31 -7 0 -10 5 -6 11 3 6 5 22 3
36 -4 35 6 21 12 -16z m7 -59 c0 -8 -4 -15 -8 -15 -5 0 -9 7 -9 15 0 8 4 15 9
15 4 0 8 -7 8 -15z"/>
<path d="M1645 1680 c3 -5 13 -10 20 -10 33 0 38 -40 32 -244 -6 -216 -14
-259 -53 -306 -14 -16 -23 -30 -20 -30 14 0 67 39 86 63 47 60 52 87 49 301
-3 199 -3 201 19 212 42 21 35 24 -52 24 -56 0 -85 -4 -81 -10z m88 -40 c-3
-11 -7 -20 -8 -20 -1 0 -5 9 -8 20 -3 12 0 20 8 20 8 0 11 -8 8 -20z m-6 -72
c-3 -8 -6 -5 -6 6 -1 11 2 17 5 13 3 -3 4 -12 1 -19z m0 -60 c-3 -8 -6 -5 -6
6 -1 11 2 17 5 13 3 -3 4 -12 1 -19z m0 -200 c-3 -7 -5 -2 -5 12 0 14 2 19 5
13 2 -7 2 -19 0 -25z m-16 -101 c-10 -9 -11 -8 -5 6 3 10 9 15 12 12 3 -3 0
-11 -7 -18z"/>
<path d="M2100 1679 c0 -6 -11 -37 -24 -68 -14 -31 -48 -116 -77 -189 -34 -88
-60 -140 -77 -152 l-25 -20 64 1 c51 0 59 2 40 10 -25 10 -25 23 4 92 l16 38
90 -3 91 -3 19 -50 19 -50 -21 -17 c-21 -17 -19 -18 62 -18 82 0 88 3 48 24
-19 10 -108 207 -166 369 -14 37 -22 47 -40 47 -13 0 -23 -5 -23 -11z m35 -29
c3 -5 1 -10 -4 -10 -6 0 -11 5 -11 10 0 6 2 10 4 10 3 0 8 -4 11 -10z m15 -30
c0 -5 -7 -7 -15 -4 -8 4 -15 8 -15 10 0 2 7 4 15 4 8 0 15 -4 15 -10z m-2 -98
c18 -48 32 -89 32 -92 0 -7 -150 -7 -150 0 0 3 4 10 8 16 5 5 22 44 38 86 16
43 31 78 34 78 3 0 20 -40 38 -88z m37 9 c3 -5 2 -12 -3 -15 -5 -3 -9 1 -9 9
0 17 3 19 12 6z m42 -103 c-2 -7 1 -22 6 -33 15 -27 17 -46 5 -39 -5 3 -7 8
-4 11 3 3 -4 19 -16 36 -12 17 -17 27 -10 23 7 -4 12 -2 12 3 0 6 3 11 6 11 3
0 4 -6 1 -12z m35 -105 c-1 -4 7 -16 15 -25 9 -10 13 -18 10 -18 -4 0 -10 0
-14 0 -5 0 -9 5 -9 10 -1 6 -2 11 -4 13 -4 5 -8 38 -3 34 2 -3 5 -9 5 -14z"/>
<path d="M2440 1685 c0 -3 11 -10 25 -15 l25 -10 0 -189 0 -190 -27 -15 c-26
-14 -16 -15 128 -16 l156 0 11 39 c18 58 14 69 -10 33 -26 -37 -35 -40 -103
-43 -106 -4 -95 -24 -95 185 l0 184 28 21 27 20 -82 1 c-46 0 -83 -2 -83 -5z
m88 -55 c-12 -37 -16 -38 -14 -5 0 14 5 25 9 25 5 0 5 5 1 12 -4 6 -3 8 4 4 8
-4 8 -15 0 -36z m-1 -122 c-3 -8 -6 -5 -6 6 -1 11 2 17 5 13 3 -3 4 -12 1 -19z
m-4 -189 c-5 -5 -7 7 -4 29 5 34 6 35 9 8 2 -16 0 -32 -5 -37z m5 -32 c8 -10
6 -13 -7 -13 -11 0 -17 6 -14 13 3 7 6 13 8 13 1 0 7 -6 13 -13z"/>
<path d="M2890 1685 c0 -3 11 -10 25 -15 l25 -10 0 -190 0 -190 -25 -10 c-14
-5 -25 -12 -25 -15 0 -3 67 -5 149 -5 l149 0 10 28 c6 15 14 38 17 52 7 23 4
22 -32 -13 -39 -37 -41 -38 -109 -35 l-69 3 -3 188 -2 187 25 10 c14 5 25 12
25 15 0 3 -36 5 -80 5 -44 0 -80 -2 -80 -5z m93 -32 c-3 -7 -8 -13 -12 -13 -4
0 -8 6 -8 13 0 8 6 14 13 14 7 0 10 -6 7 -14z m-3 -54 c0 -28 -15 -23 -16 6
-1 14 2 22 7 19 5 -3 9 -14 9 -25z m-9 -126 c-4 -28 -6 -32 -9 -15 -3 22 3 52
11 52 1 0 1 -17 -2 -37z m5 -155 c-1 -13 1 -28 6 -34 4 -6 2 -11 -5 -11 -11 0
-16 42 -8 65 4 10 8 -2 7 -20z"/>
<path d="M3310 1680 c0 -5 9 -10 19 -10 11 0 23 -5 26 -11 4 -5 7 -92 6 -192
-1 -173 -2 -183 -22 -199 -21 -17 -19 -18 55 -18 49 0 75 4 71 10 -3 6 -12 10
-20 10 -19 0 -25 23 -25 101 l0 69 33 -4 c17 -2 35 -4 39 -5 4 0 35 -41 69
-91 l61 -90 62 0 c60 1 61 1 30 14 -18 8 -61 50 -99 97 l-67 84 29 7 c40 10
73 48 84 98 13 56 -4 89 -61 118 -39 19 -60 22 -167 22 -75 0 -123 -4 -123
-10z m90 -20 c0 -5 -2 -10 -4 -10 -3 0 -8 5 -11 10 -3 6 -1 10 4 10 6 0 11 -4
11 -10z m172 -28 c14 -14 20 -33 20 -67 0 -67 -27 -92 -109 -101 l-63 -7 0
101 0 101 33 3 c47 5 97 -8 119 -30z m65 -34 c1 -11 -3 -18 -9 -16 -15 5 -19
35 -4 35 7 0 13 -9 13 -19z m-3 -43 c-4 -8 -8 -15 -10 -15 -2 0 -4 7 -4 15 0
8 4 15 10 15 5 0 7 -7 4 -15z m-4 -29 c0 -3 -4 -8 -10 -11 -5 -3 -10 -1 -10 4
0 6 5 11 10 11 6 0 10 -2 10 -4z m-220 -77 c0 -5 -4 -9 -10 -9 -5 0 -10 7 -10
16 0 8 5 12 10 9 6 -3 10 -10 10 -16z m-13 -51 c-3 -8 -6 -5 -6 6 -1 11 2 17
5 13 3 -3 4 -12 1 -19z m229 -94 c2 -12 -1 -13 -12 -3 -7 6 -11 16 -8 21 7 11
17 3 20 -18z m-223 -17 c3 -8 -1 -14 -9 -14 -8 0 -14 6 -14 14 0 7 4 13 9 13
5 0 11 -6 14 -13z"/>
<path d="M4372 1649 l0 -40 27 25 c22 21 37 26 82 26 l54 0 -3 -187 c-2 -177
-4 -189 -23 -205 -21 -17 -19 -18 56 -18 l78 0 -25 23 c-25 23 -25 27 -27 178
0 85 2 166 5 182 5 25 9 27 55 27 40 0 54 -5 73 -25 13 -14 25 -25 27 -25 3 0
3 18 1 40 l-4 40 -188 0 -189 0 1 -41z m203 -44 c1 -14 -2 -22 -5 -19 -3 3 -5
16 -5 29 -1 14 2 22 5 19 3 -3 5 -16 5 -29z m-8 -277 c-2 -13 -4 -3 -4 22 0
25 2 35 4 23 2 -13 2 -33 0 -45z"/>
<path d="M2026 1647 c3 -10 9 -15 12 -12 3 3 0 11 -7 18 -10 9 -11 8 -5 -6z"/>
<path d="M730 745 l0 -25 2245 0 c1235 0 2248 -1 2251 -2 4 -2 8 9 10 25 l3
27 -2255 0 -2254 0 0 -25z m4337 -11 c-3 -3 -12 -4 -19 -1 -8 3 -5 6 6 6 11 1
17 -2 13 -5z"/>
<path d="M3348 449 l-3 -51 -32 46 c-46 65 -59 61 -55 -19 3 -42 8 -65 16 -65
8 0 11 12 8 34 -7 59 3 61 37 8 18 -29 37 -49 42 -46 12 7 12 131 0 139 -6 3
-11 -17 -13 -46z"/>
<path d="M3502 485 c-79 -34 -36 -144 50 -128 21 4 27 12 30 39 4 33 3 34 -29
34 -18 0 -33 -4 -33 -10 0 -5 9 -10 21 -10 30 0 18 -24 -14 -28 -21 -3 -29 2
-36 19 -17 48 19 91 58 69 24 -12 31 -13 31 -2 0 20 -46 30 -78 17z"/>
<path d="M2390 425 l0 -65 40 0 c22 0 40 5 40 10 0 6 -12 10 -27 10 -28 0 -28
1 -25 55 3 45 1 55 -12 55 -13 0 -16 -12 -16 -65z"/>
<path d="M2576 468 c-18 -26 -20 -51 -6 -78 40 -75 145 -10 108 67 -18 39 -78
45 -102 11z m66 0 c27 -22 30 -52 8 -76 -17 -18 -25 -20 -40 -12 -29 15 -36
57 -15 80 21 23 26 24 47 8z"/>
<path d="M2785 443 c-10 -27 -22 -52 -26 -57 -13 -15 -11 -26 5 -26 7 0 16 9
19 21 4 16 10 19 28 14 13 -4 31 -17 40 -29 10 -11 20 -19 23 -15 9 8 -48 139
-60 139 -6 0 -19 -21 -29 -47z m35 8 c0 -5 3 -16 6 -25 4 -11 1 -16 -10 -16
-10 0 -16 9 -16 25 0 14 5 25 10 25 6 0 10 -4 10 -9z"/>
<path d="M2955 425 l0 -65 36 0 c42 0 72 27 72 65 0 38 -30 65 -72 65 l-36 0
0 -65z m73 33 c27 -27 7 -78 -30 -78 -15 0 -18 8 -18 45 0 37 3 45 18 45 10 0
23 -5 30 -12z"/>
<path d="M3150 425 c0 -37 4 -65 10 -65 6 0 10 28 10 65 0 37 -4 65 -10 65 -6
0 -10 -28 -10 -65z"/>
</g>
</svg>
